<svg viewBox="0 0 703 649" version="1.1" xmlns="http://www.w3.org/2000/svg" xmlns:xlink="http://www.w3.org/1999/xlink">
    <title>undraw_add_files_re_v09g</title>
    <g id="Page-1" stroke="none" stroke-width="1" fill="none" fill-rule="evenodd">
        <g id="undraw_add_files_re_v09g" transform="translate(0.000000, 0.435935)" fill-rule="nonzero">
            <path d="M400.504175,1.52431947 L375.057865,8.08640947 L61.553695,88.9328695 L36.107345,95.4949595 C10.3901005,102.157852 -5.08066073,128.380647 1.52434498,154.112819 L111.865345,581.990229 C118.528149,607.707504 144.750911,623.178348 170.483105,616.573399 L170.548825,616.556449 L534.814185,522.619699 L534.879905,522.602749 C560.597171,515.939915 576.06798,489.717133 569.462995,463.984949 L459.121995,36.1075395 C452.459195,10.3902292 426.236401,-5.0806408 400.504175,1.52431947 Z" id="Path" fill="#F2F2F2"></path>
            <path d="M403.964185,14.9394895 L373.824735,22.7118495 L69.705895,101.138019 L39.566895,108.910249 C21.2529883,113.654946 10.2358126,132.32882 14.939395,150.653329 L125.280395,578.530739 C130.025139,596.84461 148.69902,607.861721 167.023495,603.158099 L167.089215,603.141149 L531.354575,509.204409 L531.420765,509.187339 C549.73443,504.442484 560.751348,485.768748 556.047765,467.444439 L445.706765,39.5670295 C440.962132,21.2533143 422.288552,10.2361624 403.964185,14.9394895 Z" id="Path" fill="#FFFFFF"></path>
            <path d="M381.206345,153.497439 L196.933345,201.017759 C192.647488,202.122994 188.277145,199.544591 187.171911,195.258734 C186.066676,190.972878 188.645079,186.602535 192.930935,185.497299 L377.203935,137.976969 C381.488084,136.876233 385.853944,139.454606 386.958485,143.737776 C388.063027,148.020946 385.488532,152.389094 381.206345,153.497439 L381.206345,153.497439 Z" id="Path" fill="#F2F2F2"></path>
            <path d="M419.971345,171.433229 L203.687345,227.208539 C199.401488,228.313774 195.031145,225.735371 193.92591,221.449514 C192.820675,217.163658 195.399078,212.793314 199.684935,211.688079 L415.968935,155.912769 C420.254792,154.807532 424.625137,157.385933 425.730375,161.67179 C426.835613,165.957646 424.257212,170.327992 419.971355,171.433229 L419.971345,171.433229 Z" id="Path" fill="#F2F2F2"></path>
            <path d="M411.474595,270.870929 L227.201595,318.391249 C224.429132,319.106213 221.485842,318.287775 219.480434,316.244233 C217.475026,314.200691 216.712169,311.242508 217.479224,308.484003 C218.246279,305.725498 220.426712,303.585753 223.199175,302.870789 L407.472175,255.350469 C410.244638,254.635508 413.187927,255.453947 415.193334,257.49749 C417.198741,259.541033 417.961596,262.499216 417.194539,265.25772 C416.427483,268.016225 414.247048,270.155968 411.474585,270.870929 L411.474595,270.870929 Z" id="Path" fill="#F2F2F2"></path>
            <path d="M450.239635,288.806719 L233.955635,344.582029 C231.183172,345.296993 228.239882,344.478555 226.234473,342.435013 C224.229065,340.391472 223.466208,337.433288 224.233263,334.674783 C225.000318,331.916278 227.180752,329.776533 229.953215,329.061569 L446.237215,273.286259 C450.523072,272.181022 454.893417,274.759423 455.998654,279.04528 C457.103892,283.331136 454.525491,287.701481 450.239635,288.806719 Z" id="Path" fill="#F2F2F2"></path>
            <path d="M441.742875,388.244419 L257.469875,435.764749 C253.185346,436.866488 248.818488,434.288109 247.713789,430.004342 C246.609091,425.720575 249.184452,421.351937 253.467455,420.244279 L437.740455,372.723959 C442.026312,371.618722 446.396657,374.197123 447.501895,378.48298 C448.607133,382.768836 446.028732,387.139182 441.742875,388.244419 L441.742875,388.244419 Z" id="Path" fill="#F2F2F2"></path>
            <path d="M480.507905,406.180169 L264.223905,461.955489 C261.450434,462.673338 258.50471,461.8561 256.497509,459.811939 C254.490308,457.767778 253.726948,454.807635 254.495277,452.047722 C255.263606,449.287809 257.446753,447.147941 260.221495,446.435019 L476.505495,390.659709 C480.791352,389.554472 485.161697,392.132873 486.266934,396.41873 C487.372172,400.704586 484.793771,405.074931 480.507915,406.180169 L480.507905,406.180169 Z" id="Path" fill="#F2F2F2"></path>
            <path d="M165.475185,249.742879 L100.262725,266.559879 C98.2080044,267.087346 96.1140793,265.851978 95.582105,263.798419 L80.612645,205.750239 C80.0851841,203.695525 81.3205459,201.601608 83.374095,201.069629 L148.586565,184.252629 C150.641279,183.725169 152.735196,184.96053 153.267175,187.014079 L168.236645,245.062249 C168.764118,247.116973 167.528748,249.210905 165.475185,249.742879 Z" id="Path" fill="#E6E6E6"></path>
            <path d="M195.743465,367.116369 L130.530995,383.933369 C128.476274,384.460836 126.382349,383.225468 125.850375,381.171909 L110.880915,323.123749 C110.353472,321.069051 111.588819,318.975158 113.642345,318.443169 L178.854805,301.626169 C180.909522,301.098702 183.003446,302.334065 183.535425,304.387619 L198.504885,362.435789 C199.032329,364.490485 197.796987,366.584377 195.743465,367.116369 L195.743465,367.116369 Z" id="Path" fill="#E6E6E6"></path>
            <path d="M226.011735,484.489859 L160.799275,501.306859 C158.744557,501.834327 156.650634,500.598964 156.118655,498.545409 L141.149195,440.497239 C140.621728,438.442522 141.857091,436.348598 143.910645,435.816619 L209.123115,418.999619 C211.177832,418.472159 213.271751,419.707526 213.803725,421.761079 L228.773195,479.809239 C229.300662,481.86396 228.065293,483.957885 226.011735,484.489859 L226.011735,484.489859 Z" id="Path" fill="#E6E6E6"></path>
            <path d="M654.652815,109.985869 L278.334455,109.985869 C251.768105,110.015783 230.239302,131.544639 230.209455,158.110989 L230.209455,599.986779 C230.239308,626.553119 251.768115,648.081958 278.334455,648.111849 L654.652815,648.111849 C681.219155,648.081958 702.747962,626.553119 702.777815,599.986779 L702.777815,158.110989 C702.747968,131.544639 681.219165,110.015783 654.652815,109.985869 L654.652815,109.985869 Z" id="Path" fill="#E6E6E6"></path>
            <path d="M654.653345,123.840059 L278.334455,123.840059 C259.415923,123.861266 244.0847,139.192457 244.063455,158.110989 L244.063455,599.986779 C244.084722,618.905295 259.41594,634.236459 278.334455,634.257659 L654.653345,634.257659 C673.571694,634.236249 688.902649,618.905129 688.923855,599.986779 L688.923855,158.110989 C688.902671,139.192623 673.571711,123.861475 654.653345,123.840059 Z" id="Path" fill="#FFFFFF"></path>
            <path d="M598.017025,366.649684 L407.715345,366.649684 C404.850045,366.65288 402.201028,365.126099 400.767454,362.645208 C399.333879,360.164318 399.333879,357.106811 400.767454,354.62592 C402.201028,352.14503 404.850045,350.618249 407.715345,350.621444 L598.017025,350.621444 C602.439603,350.62639 606.022193,354.212984 606.022193,358.635564 C606.022193,363.058145 602.439603,366.644739 598.017025,366.649684 L598.017025,366.649684 Z" id="Path" fill="#E6E6E6"></path>
            <path d="M631.075235,393.697314 L407.715345,393.697314 C404.850045,393.70051 402.201028,392.173729 400.767454,389.692838 C399.333879,387.211948 399.333879,384.154441 400.767454,381.67355 C402.201028,379.19266 404.850045,377.665879 407.715345,377.669074 L631.075235,377.669074 C635.501308,377.669074 639.08935,381.257121 639.08935,385.683194 C639.08935,390.109268 635.501308,393.697314 631.075235,393.697314 L631.075235,393.697314 Z" id="Path" fill="#E6E6E6"></path>
            <path d="M598.017025,487.863174 L407.715345,487.863174 C404.850045,487.86637 402.201028,486.339589 400.767454,483.858698 C399.333879,481.377808 399.333879,478.320301 400.767454,475.83941 C402.201028,473.35852 404.850045,471.831739 407.715345,471.834934 L598.017025,471.834934 C602.443098,471.834934 606.03114,475.422981 606.03114,479.849054 C606.03114,484.275128 602.443098,487.863174 598.017025,487.863174 Z" id="Path" fill="#E6E6E6"></path>
            <path d="M631.075235,514.910784 L407.715345,514.910784 C404.850045,514.91398 402.201028,513.387199 400.767454,510.906308 C399.333879,508.425418 399.333879,505.367911 400.767454,502.88702 C402.201028,500.40613 404.850045,498.879349 407.715345,498.882544 L631.075235,498.882544 C633.940535,498.879349 636.589551,500.40613 638.023126,502.88702 C639.456701,505.367911 639.456701,508.425418 638.023126,510.906308 C636.589551,513.387199 633.940535,514.91398 631.075235,514.910784 L631.075235,514.910784 Z" id="Path" fill="#E6E6E6"></path>
            <path d="M365.086625,405.975789 L297.740685,405.975789 C295.61934,405.973464 293.900231,404.254354 293.897905,402.133009 L293.897905,342.185749 C293.900231,340.064405 295.61934,338.345295 297.740685,338.342969 L365.086625,338.342969 C367.20797,338.345295 368.927079,340.064405 368.929405,342.185749 L368.929405,402.133009 C368.927079,404.254354 367.20797,405.973464 365.086625,405.975789 Z" id="Path" fill="#E6E6E6"></path>
            <path d="M365.086625,527.189259 L297.740685,527.189259 C295.61934,527.186934 293.900231,525.467824 293.897905,523.346479 L293.897905,463.399219 C293.900231,461.277875 295.61934,459.558765 297.740685,459.556439 L365.086625,459.556439 C367.20797,459.558765 368.927079,461.277875 368.929405,463.399219 L368.929405,523.346479 C368.927079,525.467824 367.20797,527.186934 365.086625,527.189259 Z" id="Path" fill="#E6E6E6"></path>
            <path d="M598.228195,231.715169 L457.926515,231.715169 C453.500441,231.715169 449.9124,228.127128 449.9124,223.701054 C449.9124,219.274981 453.500441,215.686939 457.926515,215.686939 L598.228195,215.686939 C602.654268,215.686939 606.24231,219.274981 606.24231,223.701054 C606.24231,228.127128 602.654268,231.715169 598.228195,231.715169 Z" id="Path" fill="#CCCCCC"></path>
            <path d="M631.286415,258.762789 L457.926515,258.762789 C455.063349,258.762789 452.417675,257.235309 450.986092,254.755735 C449.554509,252.27616 449.554509,249.221199 450.986092,246.741624 C452.417675,244.26205 455.063349,242.734569 457.926515,242.734569 L631.286415,242.734569 C635.712485,242.734569 639.300524,246.322609 639.300524,250.748679 C639.300524,255.17475 635.712485,258.762789 631.286415,258.762789 L631.286415,258.762789 Z" id="Path" fill="#CCCCCC"></path>
            <path d="M426.875455,291.541269 L297.529505,291.541269 C295.408168,291.538938 293.689066,289.819836 293.686735,287.698499 L293.686735,186.751229 C293.689066,184.629893 295.408168,182.910791 297.529505,182.908459 L426.875455,182.908459 C428.996792,182.910791 430.715894,184.629893 430.718225,186.751229 L430.718225,287.698499 C430.715894,289.819836 428.996792,291.538938 426.875455,291.541269 L426.875455,291.541269 Z" id="Path" fill="#00A1FF"></path>
        </g>
    </g>
</svg>