<svg width="743px" height="713px" viewBox="0 0 743 713" version="1.1" xmlns="http://www.w3.org/2000/svg" xmlns:xlink="http://www.w3.org/1999/xlink">
                <g id="Page-1" stroke="none" stroke-width="1" fill="none" fill-rule="evenodd">
                    <g id="undraw_access_denied_re_awnf-(1)" transform="translate(-0.000050, -0.000020)" fill-rule="nonzero">
                        <path d="M624.81502,168.892 L620.91502,168.892 L620.91502,61.915 C620.91502,27.7202897 593.19473,0 559.00002,0 L332.35002,0 C315.929141,0 300.180713,6.5226492 288.569211,18.1337765 C276.957708,29.7449039 270.43402,45.493121 270.43402,61.914 L270.43402,648.798 C270.43402,682.99271 298.15431,710.713 332.34902,710.713 L558.99702,710.713 C593.19173,710.713 620.91202,682.99271 620.91202,648.798 L620.91202,245.04 L624.81502,245.04 L624.81502,168.892 Z" id="aa38b2e7-2ea9-4025-adcf-83f87c0cfc4a-698" fill="#3F3D56"></path>
                        <path d="M608.21505,57.76802 L608.21505,652.94302 C608.211187,678.868389 587.198417,699.885635 561.27305,699.89502 L329.97305,699.89502 C304.037177,699.89502 283.007781,678.878892 283.00005,652.94302 L283.00005,57.76802 C283.007781,31.8330911 304.03612,10.81702 329.97105,10.81702 L358.02905,10.81702 C355.231458,17.6968229 356.037623,25.5173308 360.179858,31.6817528 C364.322092,37.8461749 371.258199,41.5476172 378.68505,41.55702 L510.55305,41.55702 C517.979901,41.5476172 524.916008,37.8461749 529.058242,31.6817528 C533.200477,25.5173308 534.006642,17.6968229 531.20905,10.81702 L561.26405,10.81702 C587.189028,10.81702 608.205665,31.8340432 608.21505,57.75902 L608.21505,57.76802 Z" id="f27259c2-0089-4137-bfd8-cb22dff914f1-699" fill="#FFFFFF"></path>
                        <circle id="fc31cc31-f989-45cc-bd1e-521a0ee1871b" fill="#F43232" cx="445.56502" cy="200.12902" r="96.565"></circle>
                        <path d="M550.88103,400.596 L345.34403,400.596 C343.242948,400.593795 341.540235,398.891082 341.53803,396.79 L341.53803,345.80602 C341.540784,343.705166 343.243176,342.002774 345.34403,342.00002 L550.88103,342.00002 C552.981884,342.002774 554.684276,343.705166 554.68703,345.80602 L554.68703,396.79102 C554.684276,398.891874 552.981884,400.594266 550.88103,400.59702 L550.88103,400.596 Z M345.34403,343.522 C344.083069,343.523103 343.06003,344.545039 343.06003,345.806 L343.06003,396.791 C343.06003,398.051961 344.083069,399.073897 345.34403,399.075 L550.88103,399.075 C552.141991,399.073897 553.16503,398.051961 553.16503,396.791 L553.16503,345.806 C553.16503,344.545039 552.141991,343.523103 550.88103,343.522 L345.34403,343.522 Z" id="a573942c-3bf3-4c43-b474-689725a927f7-700" fill="#E6E6E6"></path>
                        <path d="M408.90803,360.36101 C407.436467,360.36101 406.24353,361.553947 406.24353,363.02551 C406.24353,364.497073 407.436467,365.69001 408.90803,365.69001 L534.51303,365.69001 C535.983795,365.74637 537.221774,364.599769 537.278135,363.129005 C537.334495,361.65824 536.187894,360.420261 534.71713,360.3639 C534.67813,360.362427 534.639087,360.361793 534.6,360.362 L408.908,360.362 L408.90803,360.36101 Z" id="fb5feb1e-1fe2-48fa-806d-0a2b51d12b49-701" fill="#E6E6E6"></path>
                        <path d="M408.90803,376.34499 C407.436467,376.34499 406.24353,377.537927 406.24353,379.00949 C406.24353,380.481053 407.436467,381.67399 408.90803,381.67399 L534.51303,381.67399 C535.464448,381.710449 536.363045,381.236563 536.870328,380.43084 C537.377612,379.625118 537.416513,378.609967 536.972378,377.767785 C536.528244,376.925604 535.668548,376.384339 534.71713,376.34788 C534.67813,376.34642 534.639087,376.34579 534.6,376.34599 L408.908,376.34599 L408.90803,376.34499 Z" id="bcb9932f-0864-4b7e-b0ed-f7254bb9b8bf-702" fill="#E6E6E6"></path>
                        <path d="M550.88103,485.576 L345.34403,485.576 C343.242948,485.573795 341.540235,483.871082 341.53803,481.77 L341.53803,430.78602 C341.540784,428.685166 343.243176,426.982774 345.34403,426.98002 L550.88103,426.98002 C552.981884,426.982774 554.684276,428.685166 554.68703,430.78602 L554.68703,481.77102 C554.683714,483.871475 552.981486,485.573247 550.88103,485.576 L550.88103,485.576 Z M345.34403,428.502 C344.083069,428.503103 343.06003,429.525039 343.06003,430.786 L343.06003,481.771 C343.06003,483.031961 344.083069,484.053897 345.34403,484.055 L550.88103,484.055 C552.141991,484.053897 553.16503,483.031961 553.16503,481.771 L553.16503,430.786 C553.16503,429.525039 552.141991,428.503103 550.88103,428.502 L345.34403,428.502 Z" id="f88e2a8b-becc-4da9-bd36-af011daaaaf2-703" fill="#E6E6E6"></path>
                        <path d="M408.90803,445.617 C407.436467,445.617 406.24353,446.809937 406.24353,448.2815 C406.24353,449.753063 407.436467,450.946 408.90803,450.946 L534.51303,450.946 C535.962001,450.937781 537.138902,449.773355 537.162921,448.324553 C537.186216,446.875752 536.047961,445.673522 534.60003,445.618 L408.90803,445.618 L408.90803,445.617 Z" id="e192d34f-2ccc-4f79-b47a-46430e4d87f6-704" fill="#E6E6E6"></path>
                        <path d="M408.90803,461.60503 C407.436467,461.60503 406.24353,462.797967 406.24353,464.26953 C406.24353,465.741093 407.436467,466.93403 408.90803,466.93403 L534.51303,466.93403 C535.962001,466.925811 537.138902,465.761385 537.162921,464.312583 C537.186216,462.863782 536.047961,461.661552 534.60003,461.60603 L408.90803,461.60603 L408.90803,461.60503 Z" id="b230677c-48cc-4ee6-87d6-a753204ffe47-705" fill="#E6E6E6"></path>
                        <path d="M550.88103,570.83401 L345.34403,570.83401 C343.242948,570.831805 341.540235,569.129092 341.53803,567.02801 L341.53803,516.04403 C341.540784,513.943176 343.243176,512.240784 345.34403,512.23803 L550.88103,512.23803 C552.981884,512.240784 554.684276,513.943176 554.68703,516.04403 L554.68703,567.02903 C554.684276,569.129884 552.981884,570.832276 550.88103,570.83503 L550.88103,570.83401 Z M345.34403,513.76001 C344.083069,513.761113 343.06003,514.783049 343.06003,516.04401 L343.06003,567.02901 C343.06003,568.289971 344.083069,569.311907 345.34403,569.31301 L550.88103,569.31301 C552.141991,569.311907 553.16503,568.289971 553.16503,567.02901 L553.16503,516.04401 C553.16503,514.783049 552.141991,513.761113 550.88103,513.76001 L345.34403,513.76001 Z" id="b88a2a79-0ae3-4fd9-9894-02e0db9a2271-706" fill="#E6E6E6"></path>
                        <path d="M408.90803,530.87801 C407.436467,530.87801 406.24353,532.070947 406.24353,533.54251 C406.24353,535.014073 407.436467,536.20701 408.90803,536.20701 L534.51303,536.20701 C535.983795,536.263371 537.221774,535.11677 537.278135,533.646005 C537.334496,532.17524 536.187895,530.937261 534.71713,530.8809 C534.67813,530.87944 534.639087,530.87881 534.6,530.87901 L408.908,530.87901 L408.90803,530.87801 Z" id="aa2394a9-8b56-4a12-a2cd-a583e6ea12eb-707" fill="#E6E6E6"></path>
                        <path d="M408.90803,546.86499 C407.436467,546.86499 406.24353,548.057927 406.24353,549.52949 C406.24353,551.001053 407.436467,552.19399 408.90803,552.19399 L534.51303,552.19399 C535.983795,552.250351 537.221774,551.10375 537.278135,549.632985 C537.334496,548.16222 536.187895,546.924241 534.71713,546.86788 C534.67813,546.866413 534.639087,546.865783 534.6,546.86599 L408.908,546.86599 L408.90803,546.86499 Z" id="bc352cb2-8959-4b51-bd18-df6817a9a47e-708" fill="#E6E6E6"></path>
                        <path d="M740.479,712.57304 L1.938,712.57304 C0.867,712.57304 0,712.10504 0,711.52804 C0,710.95104 0.868,710.48304 1.938,710.48304 L740.47912,710.48304 C741.54906,710.48304 742.41712,710.95104 742.41712,711.52804 C742.41712,712.10504 741.55004,712.57304 740.479,712.57304 Z" id="b30ee82f-5b3a-4aa4-9db7-ead828191937-709" fill="#E6E6E6"></path>
                        <g id="f24cf2fd-107c-4150-a0f1-6f6b12d88bf3" transform="translate(655.301050, 620.480040)">
                            <path d="M53.90001,51.328 C47.4829399,53.5837771 40.3538993,52.3278741 35.09401,48.015 C28.50701,42.487 26.44201,33.379 24.76201,24.945 L19.79201,0 L30.19701,7.165 C37.68001,12.317 45.33101,17.635 50.51301,25.098 C55.69501,32.561 57.95601,42.749 53.79301,50.824" id="a2b576eb-bb95-4480-aa60-cd8aa023fe61-710" fill="#E6E6E6"></path>
                            <path d="M52.293,83.26501 C53.603,73.72301 54.95,64.05901 54.031,54.41601 C53.215,45.85101 50.602,37.48601 45.282,30.62701 C42.4583183,26.9933496 39.0225012,23.8800316 35.129,21.42701 C34.114,20.78601 33.179,22.39501 34.19,23.03301 C40.9270238,27.2910565 46.1377842,33.5785651 49.071,40.98901 C52.311,49.23001 52.831,58.21301 52.271,66.96601 C51.933,72.26001 51.218,77.51901 50.497,82.77101 C50.3792917,83.2639155 50.6633187,83.7638031 51.147,83.91501 C51.6419839,84.0481306 52.1519689,83.7583664 52.291,83.26501 L52.293,83.26501 Z" id="fe1c5433-44e0-47a6-8430-329cbd7c4dea-711" fill="#F2F2F2"></path>
                            <path d="M42.866,67.95495 C40.1138839,72.1378218 35.3788221,74.5817368 30.375,74.40195 C24.052,74.10195 18.78,69.68895 14.035,65.50195 L0,53.10695 L9.289,52.66295 C15.969,52.34295 22.822,52.04495 29.189,54.10495 C35.556,56.16495 41.42,61.12295 42.583,67.70495" id="f0043cfc-c9b9-4981-8afd-8c13c1b6f93f-712" fill="#E6E6E6"></path>
                            <path d="M55.99402,88.74993 C49.69402,77.59393 42.37602,65.19493 29.30902,61.23193 C25.6757396,60.1338215 21.8660266,59.7404273 18.08502,60.07293 C16.89302,60.17293 17.19102,62.01293 18.38502,61.90993 C24.7229112,61.3837991 31.0485485,63.0573808 36.29702,66.64893 C41.34802,70.08693 45.28002,74.86593 48.60802,79.93493 C50.64702,83.03493 52.47302,86.27593 54.29902,89.50793 C54.879,90.53997 56.58499,89.79492 55.99402,88.74993 Z" id="b883c521-5e9e-4a38-b47c-4f8b0cd8c6cd-713" fill="#F2F2F2"></path>
                        </g>
                        <g id="b241f6a5-c54d-499c-8ecd-4235a19d143f" transform="translate(355.000020, 354.999020)">
                            <circle id="bfaee8a8-2192-45bf-83cb-a2f223d41a02" fill="#00A1FF" cx="15.986" cy="15.986" r="15.986"></circle>
                            <path d="M8.33301,12.99998 C8.14901,12.99998 8.00001,14.19298 8.00001,15.66398 C8.00001,17.13498 8.14901,18.32898 8.33301,18.32898 L24.05201,18.32898 C24.23601,18.35298 24.38801,17.17998 24.39101,15.70898 C24.4931193,14.7930916 24.3808283,13.8660057 24.06301,13.00098 L8.33301,13.00098 L8.33301,12.99998 Z" id="ae47602b-fb54-4e88-955d-49b260f35f7f-714" fill="#E6E6E6"></path>
                        </g>
                        <g id="a1e1e52b-75f8-4aa9-8279-faf451e6aae1" transform="translate(355.000020, 440.292020)">
                            <circle id="fa3a3ce2-c232-40ee-81b4-25b83d5b931c" fill="#00A1FF" cx="15.986" cy="15.986" r="15.986"></circle>
                            <path d="M8.33301,12.99998 C8.14901,12.99998 8.00001,14.19298 8.00001,15.66398 C8.00001,17.13498 8.14901,18.32898 8.33301,18.32898 L24.05201,18.32898 C24.23601,18.35298 24.38801,17.17998 24.39101,15.70898 C24.4931193,14.7930916 24.3808283,13.8660057 24.06301,13.00098 L8.33301,13.00098 L8.33301,12.99998 Z" id="aaaffa69-7c16-47ec-b12d-87139789d2df-715" fill="#E6E6E6"></path>
                        </g>
                        <g id="fd2b54c2-3dec-4fb6-9f72-e6c667a136b8" transform="translate(355.000020, 525.550010)">
                            <circle id="abc19202-5605-459b-9c25-b430addb8839" fill="#00A1FF" cx="15.986" cy="15.986" r="15.986"></circle>
                            <path d="M8.33301,12.99998 C8.14901,12.99998 8.00001,14.19298 8.00001,15.66398 C8.00001,17.13498 8.14901,18.32898 8.33301,18.32898 L24.05201,18.32898 C24.23601,18.35298 24.38801,17.17998 24.39101,15.70898 C24.493116,14.7930916 24.3808251,13.8660065 24.06301,13.00098 L8.33301,13.00098 L8.33301,12.99998 Z" id="f69fbb38-8754-494b-94fa-96f6df4fd0e7-716" fill="#E6E6E6"></path>
                        </g>
                        <rect id="Rectangle" fill="#FFFFFF" transform="translate(445.565026, 200.129019) rotate(-45.000000) translate(-445.565026, -200.129019) " x="441.565026" y="166.629019" width="8" height="67"></rect>
                        <rect id="Rectangle" fill="#FFFFFF" transform="translate(445.565021, 200.129026) rotate(45.000000) translate(-445.565021, -200.129026) " x="441.565021" y="166.629026" width="8" height="67"></rect>
                        <path d="M90.25941,456.13494 C93.0648234,455.141997 95.2863358,452.957431 96.3261839,450.169063 C97.3660321,447.380695 97.1174002,444.274954 95.64719,441.68753 L119.2124,414.8238 L100.81693,412.28601 L81.25923,438.18534 C76.9823296,441.005221 75.4904724,446.578319 77.7866597,451.157743 C80.0828471,455.737168 85.4412881,457.87543 90.25941,456.13494 L90.25941,456.13494 Z" id="Path" fill="#9F616A"></path>
                        <polygon id="Path" fill="#9F616A" points="118.67905 694.21502 102.24405 694.21402 94.42505 630.82002 118.68205 630.82102"></polygon>
                        <path d="M122.87067,710.14673 L69.8759,710.14473 L69.8759,709.47443 C69.8766952,698.082829 79.1112988,688.848355 90.5029,688.84772 L90.50421,688.84772 L122.87161,688.84903 L122.87067,710.14673 Z" id="Path" fill="#2F2E41"></path>
                        <polygon id="Path" fill="#9F616A" points="204.71305 680.46102 189.01705 685.33402 162.75105 627.11002 185.91705 619.91802"></polygon>
                        <path d="M213.44072,694.4333 L162.82913,710.14673 L162.63036,709.50659 C159.252983,698.627143 165.333794,687.069551 176.21283,683.69085 L176.21409,683.69046 L207.12595,674.09333 L213.44072,694.4333 Z" id="Path" fill="#2F2E41"></path>
                        <polygon id="ae9bdfa9-f7e0-4b2f-8168-ca8868d01318-717" fill="#E6E6E6" points="106.09303 401.94302 81.75189 429.82032 100.80802 431.53503"></polygon>
                        <path d="M96.58202,437.87601 C96.58202,437.87601 88.12702,442.10301 87.07002,461.12701 C86.01302,480.15101 90.24102,529.82701 90.24102,529.82701 C90.24102,529.82701 86.01402,552.02101 90.24102,572.10101 C94.46802,592.18101 86.01402,665.10101 91.29802,665.10101 C96.58202,665.10101 124.06002,668.27201 125.11702,665.10101 C126.17402,661.93001 127.23102,614.37201 127.23102,614.37201 C127.23102,614.37201 135.68602,590.06401 127.23102,575.27201 C127.23102,575.27201 156.75188,626.82033 175.84602,666.16101 C180.02493,674.77101 211.77902,665.10401 206.49502,655.59201 C201.21102,646.08001 188.52902,602.74901 188.52902,602.74901 C188.52902,602.74901 179.01702,571.04301 162.10802,557.30401 L170.56302,489.66501 C170.56302,489.66501 188.53002,444.22001 177.96302,437.87901 C167.39602,431.53801 96.58202,437.87601 96.58202,437.87601 Z" id="b88343d2-9c47-4183-8a8a-427a73d8d9be-718" fill="#2F2E41"></path>
                        <circle id="fdc24b21-a9e1-47f2-b2e4-7458730b7c21" fill="#A0616A" cx="128.28701" cy="238.12902" r="27.478"></circle>
                        <path d="M158.93603,267.721 L124.77603,287.801 C124.77603,287.801 111.69603,295.167 106.81003,307.881 C101.60203,321.431 104.62903,340.509 106.81003,344.871 C111.03703,353.326 105.03703,374.463 105.03703,374.463 L99.75303,423.078 C99.75303,423.078 80.73003,441.044 95.52603,443.158 C110.32203,445.272 136.74303,442.101 152.59603,443.158 C168.44903,444.215 186.41503,446.329 181.13103,435.758 C175.84703,425.187 169.50603,417.791 175.84703,396.658 C180.80903,380.118 180.59403,318.275 180.26603,292.158 C180.174194,284.865527 176.309798,278.14153 170.05503,274.391 L158.93603,267.721 Z" id="ac268c91-41f4-49c7-bce6-773e5eb69fa2-719" fill="#E5E5E5"></path>
                        <polygon id="aebed2c8-94ca-417e-8b11-27e17cbf3024-720" fill="#000000" opacity="0.1" points="143.61602 301.01302 146.78602 365.48102 116.06002 427.70402 110.84902 425.72102 142.55502 367.59402"></polygon>
                        <polygon id="e13ea0c4-bc86-4025-9528-1665a42d3372-721" fill="#000000" opacity="0.1" points="178.48803 379.219 178.48803 371.819 142.55903 431.005"></polygon>
                        <path d="M108.78503,212.67402 L104.24603,210.85802 C104.24603,210.85802 113.74603,200.40102 126.95903,201.31002 L123.24203,197.21802 C123.24203,197.21802 132.32703,193.58102 140.58703,203.12802 C144.92903,208.14702 149.95203,214.04702 153.08703,220.69202 L157.95203,220.69202 L155.92203,225.16302 L163.02803,229.63402 L155.73403,228.83402 C156.424913,232.693827 156.188413,236.662577 155.04403,240.41302 L155.24403,243.94702 C155.24403,243.94702 146.78503,230.85802 146.78503,229.04202 L146.78503,233.58902 C146.78503,233.58902 142.24203,229.49702 142.24203,226.76902 L139.76403,229.95202 L138.52503,224.95202 L123.24503,229.95202 L125.72103,225.85802 L116.22103,227.22202 L119.93803,222.22202 C119.93803,222.22202 109.20103,228.13202 108.78803,233.13402 C108.37503,238.13602 103.00703,244.50002 103.00703,244.50002 L100.52903,239.95302 C100.52903,239.95302 96.81301,219.494 108.78503,212.67402 Z" id="eb3190ba-6b3f-4b2b-91d1-1543e580b413-722" fill="#2F2E41"></path>
                        <path d="M126.56266,459.12538 C129.147272,457.650233 130.945739,455.106033 131.474134,452.177369 C132.002529,449.248705 131.206572,446.236414 129.30044,443.95104 L147.72307,413.33104 L129.16925,414.09879 L114.5193,443.05838 C110.810926,446.59266 110.33204,452.342013 113.404601,456.441104 C116.477161,460.540195 122.129996,461.693387 126.56266,459.12538 L126.56266,459.12538 Z" id="Path" fill="#9F616A"></path>
                        <path d="M168.44904,281.46201 L176.37504,279.87701 C176.37504,279.87701 200.15404,297.31501 192.75604,332.19101 C185.35804,367.06701 152.59604,419.91001 152.59604,419.91001 C152.59604,419.91001 145.19604,429.42201 143.08404,431.53501 C140.97204,433.64801 136.74304,431.53501 138.85704,434.70601 C140.97104,437.87701 135.68604,439.99001 135.68604,439.99001 C135.68604,439.99001 112.43504,439.99001 114.54904,431.53501 C116.66304,423.08001 152.59604,362.83501 152.59604,362.83501 L147.31204,306.82201 C147.31204,306.82201 143.08304,279.34803 168.44904,281.46201 Z" id="a62f6567-f472-4931-86f9-ff652851a370-723" fill="#E5E5E5"></path>
                    </g>
                </g>
            </svg>