<svg viewBox="0 0 134 47" xmlns="http://www.w3.org/2000/svg">
<path d="M7.24669 24.8356L18.1784 30.7778L29.1101 24.8356V31.0578L18.1784 37L7.24669 31.0578V24.8356Z" />
<path d="M18.1784 9L35.3568 18.3333V30.7778H32.2334V20.0289L18.1784 27.6667L1 18.3333L18.1784 9Z" />
<path d="M126.932 20.308C126.932 21.1733 126.8 21.9213 126.536 22.552C126.272 23.1827 125.92 23.7033 125.48 24.114C125.04 24.5247 124.541 24.8327 123.984 25.038C123.426 25.2287 122.862 25.324 122.29 25.324H120.772V31H117.318V15.424H122.158C122.715 15.424 123.272 15.5047 123.83 15.666C124.402 15.8273 124.915 16.0987 125.37 16.48C125.839 16.8467 126.213 17.3453 126.492 17.976C126.785 18.6067 126.932 19.384 126.932 20.308ZM123.632 20.374C123.632 19.67 123.463 19.164 123.126 18.856C122.788 18.548 122.378 18.394 121.894 18.394H120.772V22.464H121.894C122.378 22.464 122.788 22.288 123.126 21.936C123.463 21.5693 123.632 21.0487 123.632 20.374Z" />
<path d="M114.808 25.236C114.808 26.1013 114.706 26.908 114.5 27.656C114.31 28.404 114.002 29.0567 113.576 29.614C113.151 30.1713 112.601 30.6113 111.926 30.934C111.252 31.2567 110.438 31.418 109.484 31.418C108.531 31.418 107.724 31.2567 107.064 30.934C106.404 30.6113 105.862 30.1713 105.436 29.614C105.026 29.0567 104.725 28.404 104.534 27.656C104.358 26.908 104.27 26.1013 104.27 25.236V15.424H107.812V24.928C107.812 25.368 107.834 25.7787 107.878 26.16C107.937 26.5413 108.032 26.8713 108.164 27.15C108.296 27.414 108.472 27.6267 108.692 27.788C108.912 27.9493 109.198 28.03 109.55 28.03C109.902 28.03 110.188 27.9493 110.408 27.788C110.628 27.6267 110.804 27.414 110.936 27.15C111.068 26.8713 111.156 26.5413 111.2 26.16C111.259 25.7787 111.288 25.368 111.288 24.928V15.424H114.808V25.236Z" />
<path d="M90.2688 31V15.424H97.7928V18.526H93.6348V21.584H97.4628V24.488H93.6348V27.854H98.0568V31H90.2688Z" />
<path d="M87.8583 30.076C87.3596 30.4573 86.7583 30.7653 86.0543 31C85.3503 31.2347 84.5216 31.352 83.5683 31.352C82.5856 31.352 81.7056 31.154 80.9283 30.758C80.1656 30.362 79.5129 29.812 78.9703 29.108C78.4423 28.3893 78.0316 27.5313 77.7383 26.534C77.4596 25.5367 77.3203 24.4293 77.3203 23.212C77.3203 21.9947 77.4596 20.8873 77.7383 19.89C78.0316 18.878 78.4423 18.0127 78.9703 17.294C79.4983 16.5607 80.1289 15.996 80.8623 15.6C81.6103 15.204 82.4389 15.006 83.3483 15.006C84.4043 15.006 85.2843 15.1893 85.9883 15.556C86.7069 15.908 87.2716 16.3553 87.6823 16.898L85.7683 19.472C85.2403 18.7387 84.5216 18.372 83.6123 18.372C83.1283 18.372 82.7103 18.504 82.3583 18.768C82.0063 19.0173 81.7129 19.362 81.4783 19.802C81.2436 20.242 81.0676 20.7553 80.9503 21.342C80.8476 21.9287 80.7963 22.552 80.7963 23.212C80.7963 23.872 80.8476 24.4953 80.9503 25.082C81.0529 25.6687 81.2143 26.182 81.4343 26.622C81.6689 27.062 81.9549 27.414 82.2923 27.678C82.6443 27.942 83.0623 28.074 83.5463 28.074C84.0743 28.074 84.4849 27.964 84.7783 27.744V24.84H83.1063V21.782H87.8583V30.076Z" />
<path d="M73.0499 31L72.4119 28.162H68.9139L68.2759 31H64.7559L68.5399 15.424H72.9619L76.7239 31H73.0499ZM70.7179 18.812H70.6299L69.3099 25.434H71.9719L70.7179 18.812Z" />
<path d="M62.3037 18.416V31H58.8497V18.416H55.9897V15.424H65.1637V18.416H62.3037Z" />
<path d="M53.832 19.164C53.568 18.856 53.26 18.6213 52.908 18.46C52.556 18.284 52.1893 18.196 51.808 18.196C51.412 18.196 51.0527 18.3207 50.73 18.57C50.422 18.8193 50.268 19.23 50.268 19.802C50.268 20.286 50.4293 20.6673 50.752 20.946C51.0747 21.21 51.5513 21.5033 52.182 21.826C52.534 22.002 52.9007 22.2147 53.282 22.464C53.678 22.6987 54.0373 22.992 54.36 23.344C54.6827 23.696 54.9467 24.1213 55.152 24.62C55.372 25.104 55.482 25.6833 55.482 26.358C55.482 27.194 55.35 27.9347 55.086 28.58C54.822 29.2107 54.4627 29.7387 54.008 30.164C53.568 30.5747 53.0547 30.8827 52.468 31.088C51.8813 31.308 51.2727 31.418 50.642 31.418C49.7033 31.418 48.8453 31.242 48.068 30.89C47.3053 30.538 46.6893 30.1273 46.22 29.658L48.024 27.018C48.3613 27.37 48.75 27.656 49.19 27.876C49.63 28.0813 50.0773 28.184 50.532 28.184C50.9573 28.184 51.3167 28.0447 51.61 27.766C51.9033 27.4873 52.05 27.0987 52.05 26.6C52.05 26.0867 51.874 25.6833 51.522 25.39C51.17 25.082 50.6567 24.7593 49.982 24.422C49.5567 24.2167 49.1533 23.9893 48.772 23.74C48.4053 23.4907 48.0753 23.19 47.782 22.838C47.5033 22.486 47.2833 22.0753 47.122 21.606C46.9607 21.1367 46.88 20.5793 46.88 19.934C46.88 19.0687 47.0193 18.328 47.298 17.712C47.5913 17.0813 47.9653 16.568 48.42 16.172C48.8893 15.776 49.4027 15.4827 49.96 15.292C50.532 15.1013 51.104 15.006 51.676 15.006C52.5267 15.006 53.2893 15.1453 53.964 15.424C54.6387 15.7027 55.2033 16.084 55.658 16.568L53.832 19.164Z" />
</svg>
