<svg xmlns="http://www.w3.org/2000/svg" width="40" height="45" viewBox="0 0 48 54">
    <path stroke-width="2" d="M42 1c1.38 0 2.63.56 3.536 1.464A4.984 4.984 0 0 1 47 6v36c0 1.38-.56 2.63-1.464 3.536A4.984 4.984 0 0 1 42 47H29.532L25 52.438 20.468 47H6c-1.38 0-2.63-.56-3.536-1.464A4.984 4.984 0 0 1 1 42V6c0-1.38.56-2.63 1.464-3.536A4.984 4.984 0 0 1 6 1h36Z" />
    <path d="M35.11 25.836v6.222L24.178 38l-10.931-5.942v-6.222l10.931 5.942 10.932-5.942ZM24.178 10l17.179 9.333v12.445h-3.124v-10.75l-14.055 7.639L7 19.333 24.178 10Z" />
</svg>