<svg xmlns="http://www.w3.org/2000/svg" viewBox="0 0 24 24">
    <path d="M4.695 3.057a1.04 1.04 0 0 0-.567.459c-.092.156-.108.23-.108.487 0 .268.014.326.121.5.147.239.437.443.68.479L5 5.009v13.978l-.214.048c-.271.061-.516.24-.657.479-.093.158-.109.231-.109.486 0 .256.016.328.111.489.125.213.318.375.539.454.223.079 14.437.079 14.66 0 .221-.079.414-.241.539-.454.095-.161.111-.233.111-.489 0-.255-.016-.328-.109-.486a1.041 1.041 0 0 0-.657-.479L19 18.987V5.009l.179-.027c.243-.036.533-.24.68-.479.107-.174.121-.232.121-.5 0-.257-.016-.331-.108-.487a1.02 1.02 0 0 0-.582-.461c-.263-.079-14.343-.077-14.595.002M17 12v7h-2l-.001-1.61c0-1.738-.017-1.911-.218-2.307-.23-.455-.759-.88-1.258-1.01-.389-.101-2.657-.101-3.046 0-.671.176-1.239.75-1.417 1.435-.049.185-.06.543-.06 1.86V19H7V5h10v7M8.695 6.057a1.04 1.04 0 0 0-.567.459c-.105.178-.108.207-.121.888-.008.421.004.768.03.864.062.23.25.469.471.599l.192.113h1.6l.192-.113a1.07 1.07 0 0 0 .471-.599c.026-.096.038-.443.03-.864-.013-.681-.016-.71-.121-.888a1.02 1.02 0 0 0-.582-.461c-.24-.072-1.362-.071-1.595.002m5 0a1.04 1.04 0 0 0-.567.459c-.105.178-.108.207-.121.888-.008.421.004.768.03.864.062.23.25.469.471.599l.192.113h1.6l.192-.113a1.07 1.07 0 0 0 .471-.599c.026-.096.038-.443.03-.864-.013-.681-.016-.71-.121-.888a1.02 1.02 0 0 0-.582-.461c-.24-.072-1.362-.071-1.595.002m-5 4a1.04 1.04 0 0 0-.567.459c-.105.178-.108.207-.121.888-.008.421.004.768.03.864.062.23.25.469.471.599l.192.113h1.6l.192-.113a1.07 1.07 0 0 0 .471-.599c.026-.096.038-.443.03-.864-.013-.681-.016-.71-.121-.888a1.02 1.02 0 0 0-.582-.461c-.24-.072-1.362-.071-1.595.002m5 0a1.04 1.04 0 0 0-.567.459c-.105.178-.108.207-.121.888-.008.421.004.768.03.864.062.23.25.469.471.599l.192.113h1.6l.192-.113a1.07 1.07 0 0 0 .471-.599c.026-.096.038-.443.03-.864-.013-.681-.016-.71-.121-.888a1.02 1.02 0 0 0-.582-.461c-.24-.072-1.362-.071-1.595.002M13 17.5V19h-2v-3h2v1.5" fill-rule="evenodd" />
</svg>